<?xml version="1.0" encoding="us-ascii" standalone="no"?><svg xmlns="http://www.w3.org/2000/svg" xmlns:xlink="http://www.w3.org/1999/xlink" contentStyleType="text/css" height="2151px" preserveAspectRatio="none" style="width:1107px;height:2151px;background:#FFFFFF;" version="1.1" viewBox="0 0 1107 2151" width="1107px" zoomAndPan="magnify"><defs/><g><line style="stroke:#0066CC;stroke-width:2.0;stroke-dasharray:5.0,5.0;" x1="21" x2="21" y1="79.7773" y2="2074.1992"/><line style="stroke:#0066CC;stroke-width:2.0;stroke-dasharray:5.0,5.0;" x1="347.5" x2="347.5" y1="79.7773" y2="2074.1992"/><line style="stroke:#0066CC;stroke-width:2.0;stroke-dasharray:5.0,5.0;" x1="409.5" x2="409.5" y1="79.7773" y2="2074.1992"/><line style="stroke:#0066CC;stroke-width:2.0;stroke-dasharray:5.0,5.0;" x1="613" x2="613" y1="79.7773" y2="2074.1992"/><line style="stroke:#0066CC;stroke-width:2.0;stroke-dasharray:5.0,5.0;" x1="830.5" x2="830.5" y1="79.7773" y2="2074.1992"/><line style="stroke:#0066CC;stroke-width:2.0;stroke-dasharray:5.0,5.0;" x1="951.5" x2="951.5" y1="79.7773" y2="2074.1992"/><text fill="#212529" font-family="sans-serif" font-size="10" lengthAdjust="spacing" textLength="27" x="5" y="77.668">Sarah</text><ellipse cx="21.5" cy="15" fill="#E9ECEF" rx="8" ry="8" style="stroke:#6F42C1;stroke-width:2.0;"/><path d="M21.5,23 L21.5,50 M8.5,31 L34.5,31 M21.5,50 L8.5,65 M21.5,50 L34.5,65 " fill="none" style="stroke:#6F42C1;stroke-width:2.0;"/><text fill="#212529" font-family="sans-serif" font-size="10" lengthAdjust="spacing" textLength="27" x="5" y="2082.8672">Sarah</text><ellipse cx="21.5" cy="2094.9766" fill="#E9ECEF" rx="8" ry="8" style="stroke:#6F42C1;stroke-width:2.0;"/><path d="M21.5,2102.9766 L21.5,2129.9766 M8.5,2110.9766 L34.5,2110.9766 M21.5,2129.9766 L8.5,2144.9766 M21.5,2129.9766 L34.5,2144.9766 " fill="none" style="stroke:#6F42C1;stroke-width:2.0;"/><text fill="#212529" font-family="sans-serif" font-size="10" lengthAdjust="spacing" textLength="24" x="332.5" y="77.668">Mike</text><ellipse cx="347.5" cy="15" fill="#E9ECEF" rx="8" ry="8" style="stroke:#6F42C1;stroke-width:2.0;"/><path d="M347.5,23 L347.5,50 M334.5,31 L360.5,31 M347.5,50 L334.5,65 M347.5,50 L360.5,65 " fill="none" style="stroke:#6F42C1;stroke-width:2.0;"/><text fill="#212529" font-family="sans-serif" font-size="10" lengthAdjust="spacing" textLength="24" x="332.5" y="2082.8672">Mike</text><ellipse cx="347.5" cy="2094.9766" fill="#E9ECEF" rx="8" ry="8" style="stroke:#6F42C1;stroke-width:2.0;"/><path d="M347.5,2102.9766 L347.5,2129.9766 M334.5,2110.9766 L360.5,2110.9766 M347.5,2129.9766 L334.5,2144.9766 M347.5,2129.9766 L360.5,2144.9766 " fill="none" style="stroke:#6F42C1;stroke-width:2.0;"/><rect fill="#F8F9FA" height="25.7773" rx="4" ry="4" style="stroke:#0066CC;stroke-width:2.0;" width="74" x="372.5" y="53"/><text fill="#212529" font-family="sans-serif" font-size="10" lengthAdjust="spacing" textLength="60" x="379.5" y="69.668">main branch</text><rect fill="#F8F9FA" height="25.7773" rx="4" ry="4" style="stroke:#0066CC;stroke-width:2.0;" width="74" x="372.5" y="2073.1992"/><text fill="#212529" font-family="sans-serif" font-size="10" lengthAdjust="spacing" textLength="60" x="379.5" y="2089.8672">main branch</text><rect fill="#F8F9FA" height="25.7773" rx="4" ry="4" style="stroke:#0066CC;stroke-width:2.0;" width="67" x="580" y="53"/><text fill="#212529" font-family="sans-serif" font-size="10" lengthAdjust="spacing" textLength="53" x="587" y="69.668">dev branch</text><rect fill="#F8F9FA" height="25.7773" rx="4" ry="4" style="stroke:#0066CC;stroke-width:2.0;" width="67" x="580" y="2073.1992"/><text fill="#212529" font-family="sans-serif" font-size="10" lengthAdjust="spacing" textLength="53" x="587" y="2089.8672">dev branch</text><rect fill="#F8F9FA" height="25.7773" rx="4" ry="4" style="stroke:#0066CC;stroke-width:2.0;" width="118" x="771.5" y="53"/><text fill="#212529" font-family="sans-serif" font-size="10" lengthAdjust="spacing" textLength="104" x="778.5" y="69.668">hotfix-critical (Sarah)</text><rect fill="#F8F9FA" height="25.7773" rx="4" ry="4" style="stroke:#0066CC;stroke-width:2.0;" width="118" x="771.5" y="2073.1992"/><text fill="#212529" font-family="sans-serif" font-size="10" lengthAdjust="spacing" textLength="104" x="778.5" y="2089.8672">hotfix-critical (Sarah)</text><rect fill="#F8F9FA" height="25.7773" rx="4" ry="4" style="stroke:#0066CC;stroke-width:2.0;" width="104" x="899.5" y="53"/><text fill="#212529" font-family="sans-serif" font-size="10" lengthAdjust="spacing" textLength="90" x="906.5" y="69.668">feature-api (Mike)</text><rect fill="#F8F9FA" height="25.7773" rx="4" ry="4" style="stroke:#0066CC;stroke-width:2.0;" width="104" x="899.5" y="2073.1992"/><text fill="#212529" font-family="sans-serif" font-size="10" lengthAdjust="spacing" textLength="90" x="906.5" y="2089.8672">feature-api (Mike)</text><rect fill="#EEEEEE" height="3" style="stroke:#EEEEEE;stroke-width:1.0;" width="1100.5" x="0" y="110.4326"/><line style="stroke:#000000;stroke-width:1.0;" x1="0" x2="1100.5" y1="110.4326" y2="110.4326"/><line style="stroke:#000000;stroke-width:1.0;" x1="0" x2="1100.5" y1="113.4326" y2="113.4326"/><rect fill="#EEEEEE" height="23.3105" style="stroke:#000000;stroke-width:2.0;" width="173" x="463.75" y="99.7773"/><text fill="#000000" font-family="sans-serif" font-size="13" font-weight="bold" lengthAdjust="spacing" textLength="155" x="469.75" y="116.3457">Critical Issue Identified</text><polygon fill="#28A745" points="335.5,149.2207,345.5,153.2207,335.5,157.2207,339.5,153.2207" style="stroke:#28A745;stroke-width:1.0;"/><line style="stroke:#28A745;stroke-width:2.0;" x1="21.5" x2="341.5" y1="153.2207" y2="153.2207"/><text fill="#856404" font-family="sans-serif" font-size="12" lengthAdjust="spacing" textLength="237" x="28.5" y="148.6895">"Critical bug in production - need hotfix!"</text><rect fill="#EEEEEE" height="3" style="stroke:#EEEEEE;stroke-width:1.0;" width="1100.5" x="0" y="231.876"/><line style="stroke:#000000;stroke-width:1.0;" x1="0" x2="1100.5" y1="231.876" y2="231.876"/><line style="stroke:#000000;stroke-width:1.0;" x1="0" x2="1100.5" y1="234.876" y2="234.876"/><rect fill="#EEEEEE" height="23.3105" style="stroke:#000000;stroke-width:2.0;" width="189" x="455.75" y="221.2207"/><text fill="#000000" font-family="sans-serif" font-size="13" font-weight="bold" lengthAdjust="spacing" textLength="171" x="461.75" y="237.7891">Emergency Hotfix Branch</text><polygon fill="#28A745" points="818.5,270.6641,828.5,274.6641,818.5,278.6641,822.5,274.6641" style="stroke:#28A745;stroke-width:1.0;"/><line style="stroke:#28A745;stroke-width:2.0;" x1="21.5" x2="824.5" y1="274.6641" y2="274.6641"/><text fill="#856404" font-family="sans-serif" font-size="12" lengthAdjust="spacing" textLength="82" x="28.5" y="270.1328">git fetch origin</text><polygon fill="#28A745" points="818.5,298.7969,828.5,302.7969,818.5,306.7969,822.5,302.7969" style="stroke:#28A745;stroke-width:1.0;"/><line style="stroke:#28A745;stroke-width:2.0;" x1="21.5" x2="824.5" y1="302.7969" y2="302.7969"/><text fill="#856404" font-family="sans-serif" font-size="12" lengthAdjust="spacing" textLength="213" x="28.5" y="298.2656">git switch -c hotfix-critical origin/dev</text><polygon fill="#28A745" points="818.5,326.9297,828.5,330.9297,818.5,334.9297,822.5,330.9297" style="stroke:#28A745;stroke-width:1.0;"/><line style="stroke:#28A745;stroke-width:2.0;" x1="21.5" x2="824.5" y1="330.9297" y2="330.9297"/><text fill="#856404" font-family="sans-serif" font-size="12" lengthAdjust="spacing" textLength="329" x="28.5" y="326.3984">git add / git commit -m "fix: critical security vulnerability"</text><rect fill="#EEEEEE" height="3" style="stroke:#EEEEEE;stroke-width:1.0;" width="1100.5" x="0" y="409.585"/><line style="stroke:#000000;stroke-width:1.0;" x1="0" x2="1100.5" y1="409.585" y2="409.585"/><line style="stroke:#000000;stroke-width:1.0;" x1="0" x2="1100.5" y1="412.585" y2="412.585"/><rect fill="#EEEEEE" height="23.3105" style="stroke:#000000;stroke-width:2.0;" width="217" x="441.75" y="398.9297"/><text fill="#000000" font-family="sans-serif" font-size="13" font-weight="bold" lengthAdjust="spacing" textLength="199" x="447.75" y="415.498">Parallel Feature Development</text><polygon fill="#28A745" points="939.5,448.373,949.5,452.373,939.5,456.373,943.5,452.373" style="stroke:#28A745;stroke-width:1.0;"/><line style="stroke:#28A745;stroke-width:2.0;" x1="347.5" x2="945.5" y1="452.373" y2="452.373"/><text fill="#856404" font-family="sans-serif" font-size="12" lengthAdjust="spacing" textLength="82" x="354.5" y="447.8418">git fetch origin</text><polygon fill="#28A745" points="939.5,476.5059,949.5,480.5059,939.5,484.5059,943.5,480.5059" style="stroke:#28A745;stroke-width:1.0;"/><line style="stroke:#28A745;stroke-width:2.0;" x1="347.5" x2="945.5" y1="480.5059" y2="480.5059"/><text fill="#856404" font-family="sans-serif" font-size="12" lengthAdjust="spacing" textLength="203" x="354.5" y="475.9746">git switch -c feature-api origin/dev</text><polygon fill="#28A745" points="939.5,504.6387,949.5,508.6387,939.5,512.6387,943.5,508.6387" style="stroke:#28A745;stroke-width:1.0;"/><line style="stroke:#28A745;stroke-width:2.0;" x1="347.5" x2="945.5" y1="508.6387" y2="508.6387"/><text fill="#856404" font-family="sans-serif" font-size="12" lengthAdjust="spacing" textLength="395" x="354.5" y="504.1074">git add / git commit -m "feat: new API endpoints" (multiple commits)</text><rect fill="#EEEEEE" height="3" style="stroke:#EEEEEE;stroke-width:1.0;" width="1100.5" x="0" y="587.2939"/><line style="stroke:#000000;stroke-width:1.0;" x1="0" x2="1100.5" y1="587.2939" y2="587.2939"/><line style="stroke:#000000;stroke-width:1.0;" x1="0" x2="1100.5" y1="590.2939" y2="590.2939"/><rect fill="#EEEEEE" height="23.3105" style="stroke:#000000;stroke-width:2.0;" width="152" x="474.25" y="576.6387"/><text fill="#000000" font-family="sans-serif" font-size="13" font-weight="bold" lengthAdjust="spacing" textLength="134" x="480.25" y="593.207">Hotfix Merge to Dev</text><polygon fill="#28A745" points="601.5,626.082,611.5,630.082,601.5,634.082,605.5,630.082" style="stroke:#28A745;stroke-width:1.0;"/><line style="stroke:#28A745;stroke-width:2.0;" x1="21.5" x2="607.5" y1="630.082" y2="630.082"/><text fill="#856404" font-family="sans-serif" font-size="12" lengthAdjust="spacing" textLength="162" x="28.5" y="625.5508">git push origin hotfix-critical</text><polygon fill="#28A745" points="601.5,654.2148,611.5,658.2148,601.5,662.2148,605.5,658.2148" style="stroke:#28A745;stroke-width:1.0;"/><line style="stroke:#28A745;stroke-width:2.0;" x1="21.5" x2="607.5" y1="658.2148" y2="658.2148"/><text fill="#856404" font-family="sans-serif" font-size="12" lengthAdjust="spacing" textLength="228" x="28.5" y="653.6836">Open PR hotfix-critical -&gt; dev (GitHub)</text><line style="stroke:#28A745;stroke-width:2.0;" x1="613.5" x2="655.5" y1="686.3477" y2="686.3477"/><line style="stroke:#28A745;stroke-width:2.0;" x1="655.5" x2="655.5" y1="686.3477" y2="699.3477"/><line style="stroke:#28A745;stroke-width:2.0;" x1="614.5" x2="655.5" y1="699.3477" y2="699.3477"/><polygon fill="#28A745" points="624.5,695.3477,614.5,699.3477,624.5,703.3477,620.5,699.3477" style="stroke:#28A745;stroke-width:1.0;"/><text fill="#856404" font-family="sans-serif" font-size="12" lengthAdjust="spacing" textLength="155" x="620.5" y="681.8164">Code review and CI checks</text><line style="stroke:#28A745;stroke-width:2.0;" x1="613.5" x2="655.5" y1="727.4805" y2="727.4805"/><line style="stroke:#28A745;stroke-width:2.0;" x1="655.5" x2="655.5" y1="727.4805" y2="740.4805"/><line style="stroke:#28A745;stroke-width:2.0;" x1="614.5" x2="655.5" y1="740.4805" y2="740.4805"/><polygon fill="#28A745" points="624.5,736.4805,614.5,740.4805,624.5,744.4805,620.5,740.4805" style="stroke:#28A745;stroke-width:1.0;"/><text fill="#856404" font-family="sans-serif" font-size="12" lengthAdjust="spacing" textLength="203" x="620.5" y="722.9492">Click "Merge pull request" (--no-ff)</text><path d="M618,756.4805 L618,781.4805 A3,3 0 0 0 621,784.4805 L811,784.4805 A3,3 0 0 0 814,781.4805 L814,763.4805 L804,753.4805 L621,753.4805 A3,3 0 0 0 618,756.4805 " fill="#E9ECEF" style="stroke:#6F42C1;stroke-width:1.0;"/><path d="M804,753.4805 L804,761.9805 A1.5,1.5 0 0 0 805.5,763.4805 L814,763.4805 L804,753.4805 " fill="#E9ECEF" style="stroke:#6F42C1;stroke-width:1.0;"/><text fill="#212529" font-family="sans-serif" font-size="9" lengthAdjust="spacing" textLength="175" x="624" y="767.1816">GitHub merge preserves hotfix history</text><text fill="#212529" font-family="sans-serif" font-size="9" lengthAdjust="spacing" textLength="127" x="624" y="777.7813">for audit trail (best practice)</text><polygon fill="#28A745" points="335.5,805.8125,345.5,809.8125,335.5,813.8125,339.5,809.8125" style="stroke:#28A745;stroke-width:1.0;"/><line style="stroke:#28A745;stroke-width:2.0;" x1="21.5" x2="341.5" y1="809.8125" y2="809.8125"/><text fill="#856404" font-family="sans-serif" font-size="12" lengthAdjust="spacing" textLength="302" x="28.5" y="805.2813">"Hotfix merged to dev - please rebase your feature"</text><rect fill="#EEEEEE" height="3" style="stroke:#EEEEEE;stroke-width:1.0;" width="1100.5" x="0" y="888.4678"/><line style="stroke:#000000;stroke-width:1.0;" x1="0" x2="1100.5" y1="888.4678" y2="888.4678"/><line style="stroke:#000000;stroke-width:1.0;" x1="0" x2="1100.5" y1="891.4678" y2="891.4678"/><rect fill="#EEEEEE" height="23.3105" style="stroke:#000000;stroke-width:2.0;" width="173" x="463.75" y="877.8125"/><text fill="#000000" font-family="sans-serif" font-size="13" font-weight="bold" lengthAdjust="spacing" textLength="155" x="469.75" y="894.3809">Rebase Feature Branch</text><polygon fill="#28A745" points="939.5,927.2559,949.5,931.2559,939.5,935.2559,943.5,931.2559" style="stroke:#28A745;stroke-width:1.0;"/><line style="stroke:#28A745;stroke-width:2.0;" x1="347.5" x2="945.5" y1="931.2559" y2="931.2559"/><text fill="#856404" font-family="sans-serif" font-size="12" lengthAdjust="spacing" textLength="82" x="354.5" y="926.7246">git fetch origin</text><polygon fill="#28A745" points="939.5,955.3887,949.5,959.3887,939.5,963.3887,943.5,959.3887" style="stroke:#28A745;stroke-width:1.0;"/><line style="stroke:#28A745;stroke-width:2.0;" x1="347.5" x2="945.5" y1="959.3887" y2="959.3887"/><text fill="#856404" font-family="sans-serif" font-size="12" lengthAdjust="spacing" textLength="121" x="354.5" y="954.8574">git rebase origin/dev</text><rect fill="#EEEEEE" height="3" style="stroke:#EEEEEE;stroke-width:1.0;" width="1100.5" x="0" y="1038.0439"/><line style="stroke:#000000;stroke-width:1.0;" x1="0" x2="1100.5" y1="1038.0439" y2="1038.0439"/><line style="stroke:#000000;stroke-width:1.0;" x1="0" x2="1100.5" y1="1041.0439" y2="1041.0439"/><rect fill="#EEEEEE" height="23.3105" style="stroke:#000000;stroke-width:2.0;" width="181" x="459.75" y="1027.3887"/><text fill="#000000" font-family="sans-serif" font-size="13" font-weight="bold" lengthAdjust="spacing" textLength="163" x="465.75" y="1043.957">Handle Rebase Conflicts</text><line style="stroke:#28A745;stroke-width:2.0;" x1="951.5" x2="993.5" y1="1080.832" y2="1080.832"/><line style="stroke:#28A745;stroke-width:2.0;" x1="993.5" x2="993.5" y1="1080.832" y2="1093.832"/><line style="stroke:#28A745;stroke-width:2.0;" x1="952.5" x2="993.5" y1="1093.832" y2="1093.832"/><polygon fill="#28A745" points="962.5,1089.832,952.5,1093.832,962.5,1097.832,958.5,1093.832" style="stroke:#28A745;stroke-width:1.0;"/><text fill="#856404" font-family="sans-serif" font-size="12" lengthAdjust="spacing" textLength="135" x="958.5" y="1076.3008">Resolve merge conflicts</text><line style="stroke:#28A745;stroke-width:2.0;" x1="951.5" x2="993.5" y1="1121.9648" y2="1121.9648"/><line style="stroke:#28A745;stroke-width:2.0;" x1="993.5" x2="993.5" y1="1121.9648" y2="1134.9648"/><line style="stroke:#28A745;stroke-width:2.0;" x1="952.5" x2="993.5" y1="1134.9648" y2="1134.9648"/><polygon fill="#28A745" points="962.5,1130.9648,952.5,1134.9648,962.5,1138.9648,958.5,1134.9648" style="stroke:#28A745;stroke-width:1.0;"/><text fill="#856404" font-family="sans-serif" font-size="12" lengthAdjust="spacing" textLength="130" x="958.5" y="1117.4336">git add conflicted-files</text><line style="stroke:#28A745;stroke-width:2.0;" x1="951.5" x2="993.5" y1="1163.0977" y2="1163.0977"/><line style="stroke:#28A745;stroke-width:2.0;" x1="993.5" x2="993.5" y1="1163.0977" y2="1176.0977"/><line style="stroke:#28A745;stroke-width:2.0;" x1="952.5" x2="993.5" y1="1176.0977" y2="1176.0977"/><polygon fill="#28A745" points="962.5,1172.0977,952.5,1176.0977,962.5,1180.0977,958.5,1176.0977" style="stroke:#28A745;stroke-width:1.0;"/><text fill="#856404" font-family="sans-serif" font-size="12" lengthAdjust="spacing" textLength="124" x="958.5" y="1158.5664">git rebase --continue</text><rect fill="#EEEEEE" height="3" style="stroke:#EEEEEE;stroke-width:1.0;" width="1100.5" x="0" y="1254.7529"/><line style="stroke:#000000;stroke-width:1.0;" x1="0" x2="1100.5" y1="1254.7529" y2="1254.7529"/><line style="stroke:#000000;stroke-width:1.0;" x1="0" x2="1100.5" y1="1257.7529" y2="1257.7529"/><rect fill="#EEEEEE" height="23.3105" style="stroke:#000000;stroke-width:2.0;" width="245" x="427.75" y="1244.0977"/><text fill="#000000" font-family="sans-serif" font-size="13" font-weight="bold" lengthAdjust="spacing" textLength="227" x="433.75" y="1260.666">Feature Review and Merge to Dev</text><polygon fill="#28A745" points="601.5,1293.541,611.5,1297.541,601.5,1301.541,605.5,1297.541" style="stroke:#28A745;stroke-width:1.0;"/><line style="stroke:#28A745;stroke-width:2.0;" x1="347.5" x2="607.5" y1="1297.541" y2="1297.541"/><text fill="#856404" font-family="sans-serif" font-size="12" lengthAdjust="spacing" textLength="152" x="354.5" y="1293.0098">git push origin feature-api</text><polygon fill="#28A745" points="601.5,1321.6738,611.5,1325.6738,601.5,1329.6738,605.5,1325.6738" style="stroke:#28A745;stroke-width:1.0;"/><line style="stroke:#28A745;stroke-width:2.0;" x1="347.5" x2="607.5" y1="1325.6738" y2="1325.6738"/><text fill="#856404" font-family="sans-serif" font-size="12" lengthAdjust="spacing" textLength="218" x="354.5" y="1321.1426">Open PR feature-api -&gt; dev (GitHub)</text><line style="stroke:#28A745;stroke-width:2.0;" x1="613.5" x2="655.5" y1="1353.8066" y2="1353.8066"/><line style="stroke:#28A745;stroke-width:2.0;" x1="655.5" x2="655.5" y1="1353.8066" y2="1366.8066"/><line style="stroke:#28A745;stroke-width:2.0;" x1="614.5" x2="655.5" y1="1366.8066" y2="1366.8066"/><polygon fill="#28A745" points="624.5,1362.8066,614.5,1366.8066,624.5,1370.8066,620.5,1366.8066" style="stroke:#28A745;stroke-width:1.0;"/><text fill="#856404" font-family="sans-serif" font-size="12" lengthAdjust="spacing" textLength="152" x="620.5" y="1349.2754">Code review and approval</text><line style="stroke:#28A745;stroke-width:2.0;" x1="613.5" x2="655.5" y1="1394.9395" y2="1394.9395"/><line style="stroke:#28A745;stroke-width:2.0;" x1="655.5" x2="655.5" y1="1394.9395" y2="1407.9395"/><line style="stroke:#28A745;stroke-width:2.0;" x1="614.5" x2="655.5" y1="1407.9395" y2="1407.9395"/><polygon fill="#28A745" points="624.5,1403.9395,614.5,1407.9395,624.5,1411.9395,620.5,1407.9395" style="stroke:#28A745;stroke-width:1.0;"/><text fill="#856404" font-family="sans-serif" font-size="12" lengthAdjust="spacing" textLength="147" x="620.5" y="1390.4082">Click "Squash and merge"</text><path d="M618,1423.9395 L618,1448.9395 A3,3 0 0 0 621,1451.9395 L816,1451.9395 A3,3 0 0 0 819,1448.9395 L819,1430.9395 L809,1420.9395 L621,1420.9395 A3,3 0 0 0 618,1423.9395 " fill="#E9ECEF" style="stroke:#6F42C1;stroke-width:1.0;"/><path d="M809,1420.9395 L809,1429.4395 A1.5,1.5 0 0 0 810.5,1430.9395 L819,1430.9395 L809,1420.9395 " fill="#E9ECEF" style="stroke:#6F42C1;stroke-width:1.0;"/><text fill="#212529" font-family="sans-serif" font-size="9" lengthAdjust="spacing" textLength="180" x="624" y="1434.6406">Squash merge cleans up feature history</text><text fill="#212529" font-family="sans-serif" font-size="9" lengthAdjust="spacing" textLength="155" x="624" y="1445.2402">But PR preserves original commits</text><rect fill="#EEEEEE" height="3" style="stroke:#EEEEEE;stroke-width:1.0;" width="1100.5" x="0" y="1527.7939"/><line style="stroke:#000000;stroke-width:1.0;" x1="0" x2="1100.5" y1="1527.7939" y2="1527.7939"/><line style="stroke:#000000;stroke-width:1.0;" x1="0" x2="1100.5" y1="1530.7939" y2="1530.7939"/><rect fill="#EEEEEE" height="23.3105" style="stroke:#000000;stroke-width:2.0;" width="244" x="428.25" y="1517.1387"/><text fill="#000000" font-family="sans-serif" font-size="13" font-weight="bold" lengthAdjust="spacing" textLength="226" x="434.25" y="1533.707">Additional Features Development</text><path d="M8,1558.4492 L8,1583.4492 A3,3 0 0 0 11,1586.4492 L357,1586.4492 A3,3 0 0 0 360,1583.4492 L360,1565.4492 L350,1555.4492 L11,1555.4492 A3,3 0 0 0 8,1558.4492 " fill="#E9ECEF" style="stroke:#6F42C1;stroke-width:1.0;"/><path d="M350,1555.4492 L350,1563.9492 A1.5,1.5 0 0 0 351.5,1565.4492 L360,1565.4492 L350,1555.4492 " fill="#E9ECEF" style="stroke:#6F42C1;stroke-width:1.0;"/><text fill="#212529" font-family="sans-serif" font-size="9" lengthAdjust="spacing" textLength="168" x="81.75" y="1569.1504">More developers continue working...</text><text fill="#212529" font-family="sans-serif" font-size="9" lengthAdjust="spacing" textLength="196" x="81.75" y="1579.75">Multiple features accumulate in dev branch</text><rect fill="#EEEEEE" height="3" style="stroke:#EEEEEE;stroke-width:1.0;" width="1100.5" x="0" y="1662.3037"/><line style="stroke:#000000;stroke-width:1.0;" x1="0" x2="1100.5" y1="1662.3037" y2="1662.3037"/><line style="stroke:#000000;stroke-width:1.0;" x1="0" x2="1100.5" y1="1665.3037" y2="1665.3037"/><rect fill="#EEEEEE" height="23.3105" style="stroke:#000000;stroke-width:2.0;" width="164" x="468.25" y="1651.6484"/><text fill="#000000" font-family="sans-serif" font-size="13" font-weight="bold" lengthAdjust="spacing" textLength="146" x="474.25" y="1668.2168">Release to Production</text><polygon fill="#28A745" points="420.5,1701.0918,410.5,1705.0918,420.5,1709.0918,416.5,1705.0918" style="stroke:#28A745;stroke-width:1.0;"/><line style="stroke:#28A745;stroke-width:2.0;" x1="414.5" x2="612.5" y1="1705.0918" y2="1705.0918"/><text fill="#856404" font-family="sans-serif" font-size="12" lengthAdjust="spacing" textLength="107" x="426.5" y="1700.5605">git push origin dev</text><polygon fill="#28A745" points="420.5,1729.2246,410.5,1733.2246,420.5,1737.2246,416.5,1733.2246" style="stroke:#28A745;stroke-width:1.0;"/><line style="stroke:#28A745;stroke-width:2.0;" x1="414.5" x2="612.5" y1="1733.2246" y2="1733.2246"/><text fill="#856404" font-family="sans-serif" font-size="12" lengthAdjust="spacing" textLength="180" x="426.5" y="1728.6934">Open PR dev -&gt; main (GitHub)</text><line style="stroke:#28A745;stroke-width:2.0;" x1="409.5" x2="451.5" y1="1761.3574" y2="1761.3574"/><line style="stroke:#28A745;stroke-width:2.0;" x1="451.5" x2="451.5" y1="1761.3574" y2="1774.3574"/><line style="stroke:#28A745;stroke-width:2.0;" x1="410.5" x2="451.5" y1="1774.3574" y2="1774.3574"/><polygon fill="#28A745" points="420.5,1770.3574,410.5,1774.3574,420.5,1778.3574,416.5,1774.3574" style="stroke:#28A745;stroke-width:1.0;"/><text fill="#856404" font-family="sans-serif" font-size="12" lengthAdjust="spacing" textLength="135" x="416.5" y="1756.8262">Final review and testing</text><line style="stroke:#28A745;stroke-width:2.0;" x1="409.5" x2="451.5" y1="1802.4902" y2="1802.4902"/><line style="stroke:#28A745;stroke-width:2.0;" x1="451.5" x2="451.5" y1="1802.4902" y2="1815.4902"/><line style="stroke:#28A745;stroke-width:2.0;" x1="410.5" x2="451.5" y1="1815.4902" y2="1815.4902"/><polygon fill="#28A745" points="420.5,1811.4902,410.5,1815.4902,420.5,1819.4902,416.5,1815.4902" style="stroke:#28A745;stroke-width:1.0;"/><text fill="#856404" font-family="sans-serif" font-size="12" lengthAdjust="spacing" textLength="175" x="416.5" y="1797.959">Click "Create a merge commit"</text><line style="stroke:#28A745;stroke-width:2.0;" x1="409.5" x2="451.5" y1="1843.623" y2="1843.623"/><line style="stroke:#28A745;stroke-width:2.0;" x1="451.5" x2="451.5" y1="1843.623" y2="1856.623"/><line style="stroke:#28A745;stroke-width:2.0;" x1="410.5" x2="451.5" y1="1856.623" y2="1856.623"/><polygon fill="#28A745" points="420.5,1852.623,410.5,1856.623,420.5,1860.623,416.5,1856.623" style="stroke:#28A745;stroke-width:1.0;"/><text fill="#856404" font-family="sans-serif" font-size="12" lengthAdjust="spacing" textLength="121" x="416.5" y="1839.0918">Deploy to production</text><rect fill="#EEEEEE" height="3" style="stroke:#EEEEEE;stroke-width:1.0;" width="1100.5" x="0" y="1935.2783"/><line style="stroke:#000000;stroke-width:1.0;" x1="0" x2="1100.5" y1="1935.2783" y2="1935.2783"/><line style="stroke:#000000;stroke-width:1.0;" x1="0" x2="1100.5" y1="1938.2783" y2="1938.2783"/><rect fill="#EEEEEE" height="23.3105" style="stroke:#000000;stroke-width:2.0;" width="157" x="471.75" y="1924.623"/><text fill="#000000" font-family="sans-serif" font-size="13" font-weight="bold" lengthAdjust="spacing" textLength="139" x="477.75" y="1941.1914">Post-Merge Cleanup</text><polygon fill="#28A745" points="939.5,1974.0664,949.5,1978.0664,939.5,1982.0664,943.5,1978.0664" style="stroke:#28A745;stroke-width:1.0;"/><line style="stroke:#28A745;stroke-width:2.0;" x1="347.5" x2="945.5" y1="1978.0664" y2="1978.0664"/><text fill="#856404" font-family="sans-serif" font-size="12" lengthAdjust="spacing" textLength="147" x="354.5" y="1973.5352">git branch -d feature-api</text><polygon fill="#28A745" points="818.5,2002.1992,828.5,2006.1992,818.5,2010.1992,822.5,2006.1992" style="stroke:#28A745;stroke-width:1.0;"/><line style="stroke:#28A745;stroke-width:2.0;" x1="21.5" x2="824.5" y1="2006.1992" y2="2006.1992"/><text fill="#856404" font-family="sans-serif" font-size="12" lengthAdjust="spacing" textLength="157" x="28.5" y="2001.668">git branch -d hotfix-critical</text><!--SRC=[nLVRRjj647tNLqpK0hK1CxxKLcmd3c0hJMmWJWKhVGiGh9P3QM6Io-mkvQXn_hsp5rx5D0qAj0OCYJltCsTsg1VQR59yEVe5PaecgBMGEKlXhLYk3BnVOOOmbNaYbgLYXcGGmQnKT3YVmzoQZfxyp6KgrSV54YvW_5FY_iQjuu-fS-Q4fybPmhQ5g9mOpv1ZopRnBeyEZqwEpjh77xFIOEo44_xiv5dS20ibCgOsJdPmC9bmlYLh9NGSiqaxMrroJY3uiAVisV598tjWAXUvJ-dqP79ySDp8K2dfQuZvhoTjAqOESnziaXmVySFnYC2-az90B7cPMQ7j0NaUrGTVHW1NZD-_KRBCuwbrT0urPiz9-bhcfdkUrEVlM8RdC9xZKYBySJFUWuWLHOgHtcY3sHvSKRJxMyRdxjcQx5562sda7eolCLsZ4Pp1EooHZ2-LOEaUQ9RhIACIIHLdBlwaE8U7pqTVRKrp_5HYpX5YmPQAPQ0Bv28HlAwlO8eSYu9zjqJV8XlehSYnAmrT_1uA8Rk3oidxbU3tEJNt78xisPsFgt8awrDxCcDnJ6cw9wg8SKCz_ITveXhErFV-toNgeBqaUZtKC3Btz6KmP23mSCp0u5xWexyBp8rO-y5VoCzr1gb8q5fy8ubMXxxXzvqqM7lBxSD_XVFPG5Q7MtoOTFWm2LdRt8hzoxIPsAKz-R-v_7NqOZzSuvwpSwROAdo_5VVO6RnnnWHrKx6ShyR0DDpISrSZndLRuHMkk_ALD8du774bx3sHmeuBkEkKhvsigvyWCxGqw1OIi6CJyggNXHYDBYvWMlcvqRf4k8cfcNHls0l-OkHSG_JI5G9qhTNQYt89L4cXP5poi9jo92kVtXEwQ1yV7zs_ZV9RXcf9zzCcf0XNhi9EZ20vXwKmaA0XiLHYIVWCg-W7ONKY3dr8lDa-8VaDK-8MxBjlN6OPVKGP0IK-dqFjGoClwVi6rcLAh6GBaT9JhwmPUKzJJE6r1zbs2rDPk3r2jJdOA3Y1FLJNjhYfgTssLZtR9iEraFKvDUG1BcStW7bSI94RFOQTh4oDe7qKjFLkjw80qwrj5nXf2-eqoJxxk4MfgqBw3UYh_rvW3hExhJwHWcNxpXjXhil5xiXgrqPJ6ICeN0igWkKnJ6-0hv3VwvvQIjC8OvzmKQOfsT0gr8PgZQ9SHacowoyvvLuyP18CVL38lA52sgvhr257M0bD0xpva2SqngoCgM2ZcA1nMv1lqgS15nntjqSa8EZynXP2Ms8413dJjg25_TZ8KbKjxd7gpcjKZ6e6vOV956ArsDDjDQ5AF0Znx8icGMcq3MLzrAxkK4jwAmb8yKglgrGniH9Z72KYnG6ja5KKaQeHUOdThAgwxvhEzybOLJhCnTRWz3Gh6hP7wuSeI2zoIgw9tqCCd7yg6MLXzHnIuq7M1Qs09N4Yrq1BBAJKqEwgD3RLXfU-EXgQCBTTr2vfMHh_wo40gFjtaSj6hZ5igBsAiBUIuiPU5vM6gYtm8DKzhTcdJvz-o6-hMoEflDFQB-akOUIKG6-MLf_CdlRKl5cpAYYRWA1TVmCzj5pjQbIzY_sfMwDrqvnEe_lQuTJgcw6HjIyCFRtGkAb2MmMh2Mxn7VULNs6HoeqjfDbvlMKWjOayLwUsiTJMmQdrE44KTwWwlAWQtVuLsuJ-2m00]--></g></svg>